<?xml version="1.0" standalone="no"?><!DOCTYPE svg PUBLIC "-//W3C//DTD SVG 1.1//EN" "http://www.w3.org/Graphics/SVG/1.1/DTD/svg11.dtd"><svg t="1636369655357" class="icon" viewBox="0 0 1057 1024" version="1.1" xmlns="http://www.w3.org/2000/svg" p-id="2134" xmlns:xlink="http://www.w3.org/1999/xlink" width="206.4453125" height="200"><defs><style type="text/css"></style></defs><path d="M262.302719 854.26504L169.515735 701.520017l19.072576-11.564119 92.786983 152.964248z m92.293727 5.480625l-186.341254-359.36459 19.949475-10.358382 187.766217 361.99529z m103.035753 0L169.077285 301.434382l19.949476-10.358381 290.473132 562.092914z m105.11839 0L169.077285 79.469064l22.196532-5.480625 392.741597 778.248769z m94.869621-5.480625L261.864269 87.690002l19.949475-10.358381L677.569685 844.016271z m120.573753 0L356.240634 87.690002l19.620638-10.96125 422.008135 766.520231z m130.712909 0L480.979662 87.690002l19.620638-10.96125 428.146435 766.520231z m6.357525-204.646543L593.113252 88.128452l19.456219-10.96125 321.986727 561.490045z m0-215.607793L710.727467 88.238065l19.236995-11.509313 204.482123 345.882252z m-1.150931-201.084136l-94.15714-144.250053 18.579319-12.276601 94.266753 144.30486z" p-id="2135" fill="#1296db"></path><path d="M936.035967 859.690858H167.871548V71.248127h768.164419v788.442731z m-713.46778-54.806251h658.771141V126.054378H225.472918z" p-id="2136" fill="#1296db"></path><path d="M1057.760651 963.713124H60.286876V0H0v1024h1057.760651z" p-id="2137" fill="#1296db"></path></svg>