<?xml version="1.0" standalone="no"?><!DOCTYPE svg PUBLIC "-//W3C//DTD SVG 1.1//EN" "http://www.w3.org/Graphics/SVG/1.1/DTD/svg11.dtd"><svg t="1636334369099" class="icon" viewBox="0 0 1024 1024" version="1.1" xmlns="http://www.w3.org/2000/svg" p-id="1001" xmlns:xlink="http://www.w3.org/1999/xlink" width="200" height="200"><defs><style type="text/css"></style></defs><path d="M944.64 440.32C944.64 197.12 747.52 0 504.32 0S64 197.12 64 440.32c0 153.6 78.336 288.256 197.632 367.104L504.32 1013.76l242.688-206.336C865.792 728.576 944.64 593.408 944.64 440.32z" fill="#87A1AE" p-id="1002"></path><path d="M779.056 337.392l3.712-4.944a16 16 0 0 0-3.152-22.4L678.064 233.6a16 16 0 0 0-22.4 3.168l-78.4 104.16 30.512 22.96 55.44-73.648a16 16 0 0 1 22.4-3.168l71.04 53.456a16 16 0 0 0 22.4-3.152z" fill="#1296db" p-id="1003" data-spm-anchor-id="a313x.7781069.0.i4" class="selected"></path><path d="M779.056 380.496l3.712 4.944a16 16 0 0 1-3.152 22.4l-101.552 76.416a16 16 0 0 1-22.4-3.152l-78.4-104.16 30.512-22.96 55.44 73.648a16 16 0 0 0 22.4 3.168l71.04-53.472a16 16 0 0 1 22.4 3.168z" fill="#1296db" p-id="1004" data-spm-anchor-id="a313x.7781069.0.i5" class="selected"></path><path d="M358.512 336.32a16 16 0 0 0-21.856-5.856l-82.8 47.808a16 16 0 0 0-5.856 21.856l159.168 275.68h-100.256a16 16 0 0 0-16 16V768a16 16 0 0 0 16 16h349.808a16 16 0 0 0 16-16V691.84a16 16 0 0 0-16-16h-102.208L358.512 336.32z" fill="#1296db" p-id="1005" data-spm-anchor-id="a313x.7781069.0.i0" class="selected"></path><path d="M310 313.088m16 0l235.264 0q16 0 16 16l0 50.72q0 16-16 16l-235.264 0q-16 0-16-16l0-50.72q0-16 16-16Z" fill="#1296db" p-id="1006" data-spm-anchor-id="a313x.7781069.0.i3" class="selected"></path><path d="M545.456 294m16 0l44.368 0q16 0 16 16l0 88.912q0 16-16 16l-44.368 0q-16 0-16-16l0-88.912q0-16 16-16Z" fill="#1296db" p-id="1007" data-spm-anchor-id="a313x.7781069.0.i2" class="selected"></path><path d="M328 360m-104 0a104 104 0 1 0 208 0 104 104 0 1 0-208 0Z" fill="#87A1AE" p-id="1008"></path><path d="M332.272 360.816m-22.272 0a22.272 22.272 0 1 0 44.544 0 22.272 22.272 0 1 0-44.544 0Z" fill="#FFFFFF" p-id="1009"></path><path d="M332.272 440.368a79.552 79.552 0 1 0 0-159.088 79.552 79.552 0 0 0 0 159.088z m0-38.176a41.36 41.36 0 1 0 0-82.736 41.36 41.36 0 0 0 0 82.72z" fill="#1296db" p-id="1010" data-spm-anchor-id="a313x.7781069.0.i1" class="selected"></path></svg>